<svg width="24" height="25" viewBox="0 0 24 25" fill="none" xmlns="http://www.w3.org/2000/svg">
<g clip-path="url(#clip0_2003_754)">
<path d="M12 3.5C12.132 3.5 12.263 3.5 12.393 3.5C11.1084 4.69371 10.2826 6.29984 10.0593 8.03922C9.83602 9.7786 10.2293 11.5412 11.1708 13.0207C12.1122 14.5002 13.5424 15.603 15.2126 16.1375C16.8829 16.6719 18.6876 16.6041 20.313 15.946C19.6878 17.4505 18.6658 18.757 17.3562 19.7263C16.0466 20.6955 14.4985 21.291 12.8769 21.4494C11.2554 21.6077 9.62129 21.323 8.14892 20.6254C6.67654 19.9278 5.42114 18.8437 4.51661 17.4886C3.61209 16.1335 3.09238 14.5583 3.01291 12.931C2.93345 11.3037 3.29721 9.6853 4.0654 8.24851C4.83359 6.81173 5.97739 5.61042 7.37479 4.77273C8.77219 3.93504 10.3708 3.49239 12 3.492V3.5Z" stroke="white" stroke-width="2" stroke-linecap="round" stroke-linejoin="round"/>
</g>
<defs>
<clipPath id="clip0_2003_754">
<rect width="24" height="24" fill="white" transform="translate(0 0.5)"/>
</clipPath>
</defs>
</svg>
